<svg width="32" height="32" viewBox="0 0 32 32" fill="none" xmlns="http://www.w3.org/2000/svg">
<g clip-path="url(#clip0_6_1013)">
<path d="M3.88288 18.4252H1.35636C1.00752 18.4252 0.724731 18.5973 0.724731 18.8095V25.7266C0.724731 25.9388 1.00752 26.1109 1.35636 26.1109H3.88288C4.23172 26.1109 4.51451 25.9388 4.51451 25.7266V18.8095C4.51451 18.5973 4.23172 18.4252 3.88288 18.4252Z" stroke="white" stroke-width="1.5" stroke-linecap="round" stroke-linejoin="round"/>
<path d="M21.5685 13.8138H19.042C18.6931 13.8138 18.4103 13.9859 18.4103 14.1981V25.7266C18.4103 25.9388 18.6931 26.1109 19.042 26.1109H21.5685C21.9173 26.1109 22.2001 25.9388 22.2001 25.7266V14.1981C22.2001 13.9859 21.9173 13.8138 21.5685 13.8138Z" stroke="white" stroke-width="1.5" stroke-linecap="round" stroke-linejoin="round"/>
<path d="M30.4113 8.43384H27.8848C27.536 8.43384 27.2532 8.60589 27.2532 8.81812V25.7266C27.2532 25.9388 27.536 26.1108 27.8848 26.1108H30.4113C30.7602 26.1108 31.043 25.9388 31.043 25.7266V8.81812C31.043 8.60589 30.7602 8.43384 30.4113 8.43384Z" stroke="white" stroke-width="1.5" stroke-linecap="round" stroke-linejoin="round"/>
<path d="M12.7257 4.591H10.1992C9.85036 4.591 9.56757 4.76305 9.56757 4.97529V25.7266C9.56757 25.9388 9.85036 26.1108 10.1992 26.1108H12.7257C13.0746 26.1108 13.3573 25.9388 13.3573 25.7266V4.97529C13.3573 4.76305 13.0746 4.591 12.7257 4.591Z" stroke="white" stroke-width="1.5" stroke-linecap="round" stroke-linejoin="round"/>
</g>
<defs>
<clipPath id="clip0_6_1013">
<rect width="32" height="32" fill="white"/>
</clipPath>
</defs>
</svg>
