<svg width="84" height="84" viewBox="0 0 84 84" fill="none" xmlns="http://www.w3.org/2000/svg">
<g opacity="0.8" clip-path="url(#clip0_6_485)">
<path d="M42 83.925C18.8828 83.925 0.0750122 65.1172 0.0750122 42C0.0750122 18.8828 18.8828 0.0750122 42 0.0750122C65.1172 0.0750122 83.925 18.8828 83.925 42C83.925 65.1172 65.1172 83.925 42 83.925ZM42 6.52501C22.4484 6.52501 6.52501 22.4484 6.52501 42C6.52501 61.5516 22.4484 77.475 42 77.475C61.5516 77.475 77.475 61.5617 77.475 42C77.475 22.4384 61.5617 6.52501 42 6.52501Z" fill="black"/>
<path d="M55.6397 49.2562C52.1325 49.2562 48.7442 47.7002 46.0977 44.8763C43.48 42.0369 41.9148 38.3859 41.6633 34.5321C41.367 30.3598 42.647 26.52 45.2673 23.7243C47.8876 20.9286 51.55 19.425 55.6397 19.425C59.6992 19.425 63.3736 20.9609 65.9859 23.7505C68.5981 26.5401 69.9103 30.4021 69.614 34.5361C69.3578 38.3876 67.7932 42.0358 65.1796 44.8763C62.5311 47.7002 59.1449 49.2562 55.6397 49.2562ZM23.4199 49.9335C17.4214 49.9335 12.1465 44.3885 11.6628 37.5717C11.4149 34.0806 12.4993 30.8536 14.7205 28.4852C16.9417 26.1169 20.0055 24.8571 23.4179 24.8571C26.8304 24.8571 29.8921 26.1552 32.0992 28.5134C34.3063 30.8717 35.425 34.1209 35.173 37.5838C34.6812 44.3905 29.4083 49.9335 23.4199 49.9335ZM75.1308 62.0111C74.8103 61.0638 74.0303 60.0539 72.4661 59.0965C67.7375 56.2081 61.9204 54.6803 55.6397 54.6803C49.4779 54.6803 43.4996 56.2726 38.8032 59.1651C33.5122 62.4243 29.9566 67.1772 28.5235 72.9076C28.1849 74.256 27.691 76.7655 28.2191 78.1704C36.6938 81.3931 46.0304 81.5409 54.6029 78.5882C63.1753 75.6354 70.4404 69.7692 75.1328 62.0111H75.1308ZM23.3816 71.3011C24.8067 65.6151 27.8402 60.8743 32.5467 57.0406C32.7692 56.857 32.9384 56.6171 33.0366 56.3459C33.1348 56.0747 33.1585 55.7822 33.1052 55.4987C33.0519 55.2152 32.9235 54.9512 32.7335 54.7342C32.5434 54.5173 32.2986 54.3552 32.0246 54.2651C29.6059 53.4931 26.8445 53.0799 23.4199 53.0799C18.6187 53.0799 13.5212 54.38 9.68545 56.7423C8.59702 57.4135 7.52873 57.6715 6.70636 57.9013C10.0081 65.1986 15.4836 71.2978 22.3839 75.3646L22.7447 75.3364C22.8236 73.9736 23.0369 72.622 23.3816 71.3011Z" fill="black"/>
</g>
<defs>
<clipPath id="clip0_6_485">
<rect width="84" height="84" fill="white"/>
</clipPath>
</defs>
</svg>
