<svg width="98" height="98" viewBox="0 0 98 98" fill="none" xmlns="http://www.w3.org/2000/svg">
<g clip-path="url(#clip0_6_515)">
<rect width="98" height="98" rx="49" fill="white"/>
<path d="M49.686 -0.180123C22.0269 -0.553703 -0.553367 22.0266 -0.179787 49.6857C0.189064 76.2122 21.7881 97.8113 48.3147 98.1802C75.9785 98.5585 98.5541 75.9782 98.1758 48.3191C97.8117 21.7878 76.2126 0.188728 49.686 -0.180123ZM79.5772 77.1959C79.483 77.2977 79.3675 77.3776 79.239 77.4298C79.1105 77.4821 78.9721 77.5054 78.8336 77.4982C78.695 77.491 78.5598 77.4534 78.4374 77.3881C78.315 77.3227 78.2085 77.2313 78.1254 77.1202C76.0105 74.3532 73.4206 71.9842 70.4765 70.1238C64.4566 66.2604 56.829 64.1324 49.0004 64.1324C41.1717 64.1324 33.5441 66.2604 27.5242 70.1238C24.5802 71.9834 21.9903 74.3516 19.8753 77.1178C19.7922 77.2289 19.6857 77.3204 19.5633 77.3857C19.441 77.451 19.3057 77.4886 19.1672 77.4959C19.0286 77.5031 18.8902 77.4797 18.7617 77.4275C18.6332 77.3752 18.5177 77.2953 18.4235 77.1935C11.4855 69.7038 7.55543 59.9173 7.38639 49.7094C7.00099 26.7011 25.881 7.4428 48.8987 7.38605C71.9164 7.32931 90.6143 26.0201 90.6143 49C90.6223 59.4541 86.68 69.5252 79.5772 77.1959Z" fill="black"/>
<path d="M49.0002 22.5184C44.3375 22.5184 40.1217 24.2657 37.126 27.4412C34.1302 30.6166 32.6336 35.0074 32.9717 39.7197C33.6574 49.0001 40.8476 56.5662 49.0002 56.5662C57.1527 56.5662 64.3288 49.0001 65.0286 39.722C65.3786 35.0546 63.8937 30.7041 60.8483 27.4696C57.8408 24.2776 53.6321 22.5184 49.0002 22.5184Z" fill="black"/>
</g>
<defs>
<clipPath id="clip0_6_515">
<rect width="98" height="98" rx="49" fill="white"/>
</clipPath>
</defs>
</svg>
