<svg width="28" height="28" viewBox="0 0 28 28" fill="none" xmlns="http://www.w3.org/2000/svg">
<g clip-path="url(#clip0_5_274)">
<path d="M11.6615 1.13873C9.5803 1.13873 7.54583 1.75588 5.81537 2.91214C4.08491 4.0684 2.73618 5.71183 1.93974 7.63462C1.14329 9.5574 0.934906 11.6732 1.34093 13.7144C1.74695 15.7556 2.74915 17.6306 4.22079 19.1022C5.69242 20.5739 7.5674 21.5761 9.60862 21.9821C11.6498 22.3881 13.7656 22.1797 15.6884 21.3833C17.6112 20.5868 19.2546 19.2381 20.4109 17.5076C21.5671 15.7772 22.1843 13.7427 22.1843 11.6615C22.1841 8.87075 21.0754 6.19434 19.102 4.22098C17.1287 2.24761 14.4523 1.13891 11.6615 1.13873V1.13873Z" stroke="#5C5F63" stroke-width="2" stroke-miterlimit="10"/>
<path d="M19.5122 19.5123L26.8612 26.8613" stroke="#5C5F63" stroke-width="2" stroke-miterlimit="10" stroke-linecap="round"/>
</g>
<defs>
<clipPath id="clip0_5_274">
<rect width="28" height="28" fill="white"/>
</clipPath>
</defs>
</svg>
